<svg viewBox="0 0 800 260" xmlns="http://www.w3.org/2000/svg">
  <defs>
    <linearGradient id="sky" x1="0" y1="0" x2="0" y2="1">
      <stop offset="0%" stop-color="#2b1e14"/>
      <stop offset="45%" stop-color="#6f4e37"/>
      <stop offset="100%" stop-color="#c9895f"/>
    </linearGradient>
    <linearGradient id="ground" x1="0" y1="0" x2="0" y2="1">
      <stop offset="0%" stop-color="#3d2b1f"/>
      <stop offset="100%" stop-color="#241811"/>
    </linearGradient>
  </defs>

  <rect width="800" height="260" fill="url(#sky)"/>

  <circle cx="120" cy="55" r="28" fill="#f3e3c7" opacity="0.9"/>
  <circle cx="132" cy="48" r="28" fill="#6f4e37"/>

  <g opacity="0.85" fill="#e8c9a0">
    <circle cx="600" cy="60" r="3"/>
    <circle cx="650" cy="40" r="2"/>
    <circle cx="700" cy="75" r="2.5"/>
    <circle cx="560" cy="90" r="2"/>
    <circle cx="730" cy="45" r="2"/>
  </g>

  <rect y="190" width="800" height="70" fill="url(#ground)"/>

  <g fill="#4a2f20">
    <ellipse cx="90" cy="185" rx="60" ry="70"/>
    <rect x="80" y="185" width="16" height="55"/>
  </g>
  <g fill="#4a2f20">
    <ellipse cx="700" cy="180" rx="70" ry="80"/>
    <rect x="688" y="180" width="18" height="60"/>
  </g>
  <g fill="#5a3826">
    <ellipse cx="200" cy="195" rx="35" ry="42"/>
    <rect x="193" y="195" width="10" height="35"/>
  </g>

  <g fill="#241811">
    <rect x="330" y="185" width="46" height="30" rx="2"/>
    <rect x="336" y="178" width="34" height="8" rx="2"/>
    <ellipse cx="353" cy="150" rx="14" ry="16"/>
    <rect x="345" y="163" width="16" height="22"/>
  </g>

  <text x="400" y="230" font-family="Georgia, serif" font-size="30" fill="#f3e3c7" text-anchor="middle" letter-spacing="1">jeshal mathias</text>
  <text x="400" y="252" font-family="Georgia, serif" font-size="13" fill="#d9b48f" text-anchor="middle" letter-spacing="4">CURIOUS · CREATIVE · DRIVEN</text>
</svg>
